<svg width="512" height="512" viewBox="0 0 400 250" fill="none" xmlns="http://www.w3.org/2000/svg">
    <rect width="400" height="250" fill="white"/>
    <g transform="translate(100, 20)">
        <path
            d="M130 60 V100 L150 120 V160 L130 180 V200 M130 200 L130 180
         M130 140 L110 120 V80
         M160 80 V130 L190 160 H230 L250 140
         M200 60 L180 80 V120
         M220 80 L200 100 V120 H230
         M250 140 V100 C250 70 230 50 190 50 H160
         M250 140 L260 150 V170 L270 175 L260 185 L265 195 L250 210 C230 230 180 220 180 180"
            stroke="#000000"
            stroke-width="6"
            stroke-linecap="round"
            stroke-linejoin="round"
            fill="none"
        />
        <circle cx="110" cy="80" r="6" stroke="#000000" stroke-width="4" fill="white" />
        <circle cx="130" cy="60" r="6" stroke="#000000" stroke-width="4" fill="white" />
        <circle cx="130" cy="200" r="6" stroke="#000000" stroke-width="4" fill="white" />
        <circle cx="150" cy="210" r="6" stroke="#000000" stroke-width="4" fill="white" />
        <circle cx="110" cy="150" r="6" stroke="#000000" stroke-width="4" fill="white" />
        <circle cx="220" cy="80" r="6" fill="#EA4335" stroke="#000000" stroke-width="2" />
        <circle cx="240" cy="100" r="6" fill="#4285F4" stroke="#000000" stroke-width="2" />
        <circle cx="220" cy="120" r="6" fill="#34A853" stroke="#000000" stroke-width="2" />
    </g>
</svg>
